<svg version="1.1" id="Layer_1" xmlns="http://www.w3.org/2000/svg" xmlns:xlink="http://www.w3.org/1999/xlink" x="0px" y="0px"
	 width="100%" viewBox="0 0 720 720" enable-background="new 0 0 720 720" xml:space="preserve">
  <defs>
    <linearGradient id="appLogoBg" x1="0" y1="0" x2="1" y2="1" gradientTransform="rotate(135 0.5 0.5)">
      <stop offset="0%" stop-color="#6EE7B7" />
      <stop offset="100%" stop-color="#3B82F6" />
    </linearGradient>
  </defs>
  <rect x="0" y="0" width="720" height="720" rx="120" fill="url(#appLogoBg)" />
<path fill="#f5f5f5" opacity="1.000000" stroke="none" 
	d="
M382.000000,499.973206 
	C328.509155,500.007965 275.517426,500.222137 222.527924,499.971161 
	C203.303726,499.880096 187.980209,491.630737 178.501221,474.504578 
	C168.480774,456.400146 167.648224,437.822693 178.934662,419.967438 
	C206.347656,376.599762 234.115616,333.456451 261.752747,290.230499 
	C265.054596,285.066254 266.889221,279.630066 266.812286,273.323761 
	C266.580566,254.329788 266.618652,235.330261 266.803955,216.335358 
	C266.842072,212.429428 265.582520,210.515640 261.995941,208.818512 
	C250.520493,203.388397 244.343506,189.427704 247.306793,176.810425 
	C250.578552,162.879745 261.356537,153.749298 274.895264,153.723160 
	C308.389435,153.658478 341.883911,153.657257 375.378113,153.714676 
	C388.253082,153.736740 399.246826,162.797104 402.313507,175.637695 
	C405.375610,188.459061 399.718231,201.651077 388.230316,207.265457 
	C384.433197,209.121185 383.596954,211.170959 383.716766,215.330887 
	C384.148407,230.315109 383.919403,245.318787 383.895966,260.315063 
	C383.893402,261.968964 383.910248,263.906891 382.353210,264.877045 
	C374.712708,269.637787 368.099823,275.663788 361.762238,281.901001 
	C359.199951,280.291168 359.865417,278.115814 359.861816,276.247009 
	C359.809692,249.085190 359.919403,221.922318 359.695374,194.762146 
	C359.654388,189.793365 361.422333,188.184219 366.081268,188.659607 
	C368.387604,188.894943 370.757721,188.825287 373.070709,188.601456 
	C376.828827,188.237778 379.499268,186.211349 379.511383,182.290939 
	C379.523895,178.252029 376.607605,177.130371 373.000397,177.133682 
	C341.006012,177.163025 309.011566,177.185074 277.017242,177.147064 
	C272.909973,177.142181 269.723969,178.801987 269.735474,182.908295 
	C269.746948,187.014343 273.126007,188.669815 277.060913,188.809341 
	C277.893341,188.838852 278.726929,188.839264 279.560028,188.844986 
	C289.043182,188.910004 289.581207,188.902130 289.702881,197.704193 
	C290.087494,225.519211 290.582275,253.343140 289.443787,281.155701 
	C289.146515,288.417358 285.866516,294.642212 282.078857,300.548981 
	C260.143280,334.757294 238.087585,368.888519 216.129318,403.082336 
	C210.010956,412.609894 203.948349,422.178558 198.099823,431.872986 
	C186.398071,451.269623 200.324814,476.536560 223.019592,476.593903 
	C284.675232,476.749695 346.331665,476.606140 407.987762,476.539764 
	C414.481567,476.532776 420.975769,476.276733 427.468475,476.090271 
	C450.368469,475.432587 463.848175,450.403625 451.903412,430.776001 
	C450.711639,428.817627 448.956177,427.127655 448.647980,424.061829 
	C454.790314,421.631531 461.033142,419.110016 467.319489,416.702087 
	C469.526550,415.856720 470.201416,417.790192 471.005707,419.183777 
	C483.838043,441.418701 481.518799,475.018616 454.410126,491.125885 
	C453.593079,491.611359 452.823792,492.177277 451.453400,493.092102 
	C455.507202,495.065186 459.168610,496.601288 462.276978,499.071991 
	C463.530121,500.068085 464.819855,499.390503 466.005249,498.734741 
	C471.981049,495.428925 477.921265,492.057434 483.934448,488.821350 
	C486.398163,487.495422 486.903778,485.675232 486.510162,483.024170 
	C484.178101,467.318390 489.554962,454.548004 501.712402,444.590637 
	C508.432312,439.086731 512.338440,439.975525 517.349304,447.988495 
	C513.576843,450.249603 508.787628,450.790436 505.909149,454.590424 
	C504.392273,456.592926 502.137787,458.374084 504.423981,461.043793 
	C506.561798,463.540253 509.103027,462.945404 511.649475,461.507080 
	C525.249878,453.825104 525.249146,453.840790 536.941040,464.309143 
	C540.539734,467.531219 544.074158,470.838776 547.839111,473.856415 
	C550.290527,475.821198 552.940918,477.699677 555.789795,478.973877 
	C562.283386,481.878326 562.355347,481.717560 559.612793,488.857635 
	C549.682739,514.709595 518.248413,521.986023 498.262299,502.953430 
	C495.943787,500.745514 494.137207,500.268585 491.316864,501.865295 
	C485.377258,505.228027 479.296448,508.345734 473.222046,511.463623 
	C471.124084,512.540466 470.664001,513.834595 470.956604,516.251099 
	C472.279724,527.178284 466.163788,537.640808 456.153473,542.184509 
	C446.147552,546.726196 434.575562,544.526550 427.190521,536.679138 
	C419.085663,528.066772 417.393066,516.706116 422.751892,506.695679 
	C423.755737,504.820435 424.861023,502.999512 426.598907,499.968689 
	C411.265442,499.968689 396.882690,499.968689 382.000000,499.973206 
M451.440125,501.594452 
	C443.911438,498.783813 437.170746,499.869904 433.104675,504.548309 
	C432.106110,505.697174 431.005707,506.884338 432.315613,508.431000 
	C433.250641,509.534973 434.620789,510.069092 435.864044,509.177490 
	C441.459564,505.164398 447.737518,503.871796 454.697327,503.943573 
	C453.812805,503.280334 452.928314,502.617126 451.440125,501.594452 
z"/>
<path fill="#f5f5f5" opacity="1.000000" stroke="none" 
	d="
M178.399963,136.015137 
	C181.154190,137.202225 182.552170,135.809052 183.760376,134.078461 
	C189.290710,126.157196 194.705872,118.153137 200.366898,110.326721 
	C202.520172,107.349800 200.708984,105.414421 199.322220,103.181160 
	C189.779587,87.813843 194.738724,67.565804 210.288956,58.368267 
	C228.081848,47.844254 251.242020,56.582714 257.274078,76.353981 
	C258.586060,80.654320 260.496735,82.647820 265.094147,82.973991 
	C271.381775,83.420067 277.614288,84.657303 283.866577,85.581474 
	C286.932922,86.034729 289.314087,85.520378 290.749847,82.252739 
	C297.707520,66.417282 321.450439,58.169842 339.607300,71.299629 
	C343.794281,74.327362 346.360382,74.023689 350.307831,71.032310 
	C356.526306,66.319916 363.351868,62.392635 370.026123,58.305645 
	C372.628448,56.712093 373.508911,55.136539 372.846039,51.853447 
	C369.598938,35.771027 380.019714,20.811628 396.409515,17.514122 
	C412.081360,14.361062 426.398651,24.250683 429.961792,40.690319 
	C433.288696,56.039852 423.162811,71.619637 407.734192,75.302780 
	C400.115204,77.121613 393.062317,76.135834 386.821228,71.581879 
	C383.328278,69.033134 380.790375,69.528450 377.475647,71.780876 
	C370.868317,76.270668 364.034515,80.440880 357.162506,84.521255 
	C354.022491,86.385689 352.842072,88.463051 353.591705,92.258652 
	C357.158478,110.318321 345.694763,127.694229 327.661255,131.959335 
	C310.590485,135.996719 292.342224,125.240654 287.793793,107.943291 
	C286.573029,103.300789 284.636871,101.313568 279.885590,100.923660 
	C273.774200,100.422127 267.653351,99.459610 261.678589,98.080383 
	C257.919373,97.212616 256.327759,98.602554 254.645462,101.593346 
	C248.485825,112.543968 238.810257,117.796501 226.398056,118.282829 
	C225.569199,118.315308 224.616394,118.460175 223.921432,118.130608 
	C216.571991,114.645248 212.880981,118.578392 209.460983,124.518517 
	C206.232880,130.125336 202.265228,135.325790 198.394806,140.535568 
	C196.313309,143.337357 195.843903,145.625351 198.396698,148.430389 
	C212.240524,163.642105 210.953033,194.017548 189.534470,207.587616 
	C186.790375,209.326187 185.813919,211.474945 186.824356,214.763565 
	C188.875977,221.440964 190.700424,228.190598 192.496567,234.942886 
	C193.240967,237.741364 194.609390,238.938431 197.726883,239.002609 
	C215.353271,239.365540 228.674667,248.647614 234.747299,264.481140 
	C240.677521,279.943359 236.834030,297.964783 224.696671,309.031097 
	C215.134430,317.749512 203.741165,321.280914 190.972855,318.052826 
	C187.013824,317.051880 185.094696,318.056030 183.429947,321.369934 
	C180.592560,327.018158 177.651474,332.619476 174.565125,338.134857 
	C173.375183,340.261292 173.803238,341.634460 175.247192,343.442657 
	C183.437668,353.699097 183.680161,368.772278 175.999207,379.758881 
	C168.986710,389.789368 154.737625,394.718689 143.186569,391.110168 
	C130.146332,387.036377 120.510185,375.064880 121.099854,362.168427 
	C122.013138,342.194489 136.537628,329.602661 154.224808,331.630035 
	C158.106522,332.074951 160.413223,330.978729 162.099426,327.342224 
	C164.336288,322.518188 167.027069,317.888855 169.755234,313.314484 
	C171.329514,310.674896 171.342148,308.755341 169.234787,306.227875 
	C152.984787,286.738373 155.716934,262.062653 175.857422,246.092316 
	C178.045959,244.356903 178.585617,242.837631 177.758072,240.189468 
	C175.475784,232.886063 173.276337,225.543549 171.443771,218.117874 
	C170.392578,213.858459 167.148148,213.994644 164.120667,213.610901 
	C147.990448,211.566299 137.098221,202.793671 131.742981,187.628281 
	C126.686066,173.307724 129.092865,159.786545 139.124451,148.395935 
	C149.412476,136.714096 162.739151,132.837524 178.399963,136.015137 
M193.802856,259.990723 
	C200.549210,257.281281 207.535782,257.149445 214.987976,258.485840 
	C204.445206,246.067780 187.336945,247.744797 179.057220,257.761047 
	C177.509979,259.632782 176.273590,261.786285 178.043243,264.045441 
	C179.896393,266.411163 182.331100,266.067657 184.754807,264.743164 
	C187.515549,263.234497 190.307724,261.783325 193.802856,259.990723 
M181.179977,153.134766 
	C181.969620,153.194305 182.759262,153.253830 184.658554,153.397034 
	C179.588486,147.810562 173.861633,145.907990 167.739166,145.710602 
	C160.210861,145.467911 153.216217,147.299286 148.547028,154.019791 
	C147.209366,155.945129 146.685760,157.991669 148.594650,159.877945 
	C150.322479,161.585312 152.302673,161.963379 154.454056,160.582291 
	C155.570480,159.865570 156.746674,159.233459 157.816727,158.454437 
	C164.617538,153.503418 172.274353,152.181274 181.179977,153.134766 
M332.380493,80.157944 
	C324.709259,70.637718 308.832123,73.999977 303.903442,80.918274 
	C302.949005,82.257988 301.702972,83.720100 302.982971,85.410141 
	C304.263824,87.101372 306.214630,87.081528 307.993988,86.419220 
	C309.209503,85.966789 310.230865,85.007896 311.363922,84.316177 
	C317.712555,80.440407 324.554321,79.071335 332.380493,80.157944 
M218.638275,64.065392 
	C216.097000,64.951042 213.649750,66.034172 211.870560,68.139366 
	C210.542572,69.710655 209.294296,71.575989 211.004196,73.475769 
	C212.606918,75.256454 214.642853,74.815277 216.422653,73.483315 
	C222.511154,68.926849 229.303574,66.916183 237.015945,67.644363 
	C231.855652,62.788048 225.967056,61.668861 218.638275,64.065392 
M141.106918,350.530304 
	C146.460754,345.972626 153.160583,345.141479 160.269531,344.340881 
	C153.625504,338.442047 141.840317,339.240173 136.826630,345.401917 
	C135.761627,346.710785 134.785797,348.205963 135.797592,349.930511 
	C136.938293,351.874756 138.649841,351.966919 141.106918,350.530304 
M407.292877,26.737732 
	C399.072174,24.090157 390.874329,25.956123 387.589752,31.248796 
	C386.806702,32.510551 385.841339,33.862053 387.264191,35.259075 
	C388.466949,36.440006 390.057953,36.712765 391.320374,35.609169 
	C396.758118,30.855564 403.603088,30.533173 410.253815,29.632666 
	C410.074921,27.972235 408.819305,27.683651 407.292877,26.737732 
z"/>
<path fill="#f5f5f5" opacity="1.000000" stroke="none" 
	d="
M328.999512,371.088562 
	C332.983124,370.909729 336.674042,371.381256 339.922607,370.395325 
	C344.853699,368.898773 346.437683,371.292145 347.858643,375.157104 
	C348.638123,377.277374 348.258575,378.295135 346.473877,379.691925 
	C339.947144,384.799957 338.855255,390.068268 342.705688,396.061981 
	C346.204346,401.508118 352.635803,402.945679 359.350891,399.201599 
	C362.400543,397.501160 363.858246,398.907227 365.726166,400.729523 
	C379.620117,414.283783 396.026520,422.829987 415.380920,425.369171 
	C418.179657,425.736359 421.025879,425.793121 423.853607,425.878235 
	C432.652985,426.143066 435.908478,428.972107 437.221558,437.598419 
	C439.155060,450.300446 429.951324,461.273224 417.120697,461.296448 
	C375.295807,461.372192 333.470276,461.487762 291.646027,461.321899 
	C272.159943,461.244598 252.691238,462.513672 233.187012,461.474060 
	C217.753632,460.651428 208.665756,446.668732 215.214645,432.509064 
	C219.977097,422.211945 226.557816,412.915039 232.454483,403.251709 
	C239.829361,391.165863 247.501785,379.261871 254.922684,367.203644 
	C256.598846,364.480042 258.607239,363.106873 261.829285,362.273926 
	C273.901276,359.153168 285.264771,362.242462 296.696747,365.361603 
	C307.130859,368.208466 317.492432,371.469879 328.999512,371.088562 
M299.501862,388.796783 
	C291.662720,385.106415 284.342163,387.841339 283.305542,394.847656 
	C282.534302,400.060272 285.157379,404.725616 289.838104,406.466339 
	C294.447815,408.180634 299.645203,406.609924 302.262329,402.711670 
	C305.042755,398.570160 304.258148,393.612335 299.501862,388.796783 
M324.708649,430.050476 
	C330.607849,431.502869 334.228851,430.261658 336.132904,426.134338 
	C338.025574,422.031830 336.829956,417.463715 333.256897,415.146088 
	C329.358215,412.617188 324.490051,413.387512 321.717072,416.972107 
	C318.817841,420.720001 319.722015,425.662292 324.708649,430.050476 
z"/>
<path fill="#f5f5f5" opacity="1.000000" stroke="none" 
	d="
M435.624084,258.813721 
	C456.794067,261.423218 473.924347,270.666504 488.006378,286.041992 
	C511.643158,311.849884 515.294312,352.621704 496.219452,381.942169 
	C494.461243,384.644806 494.342377,386.144196 496.963959,388.525757 
	C500.684753,391.905914 504.192383,394.622253 509.624054,393.750488 
	C512.645447,393.265594 514.938721,395.285980 517.100342,397.186584 
	C535.617493,413.467896 554.472046,429.350677 573.570862,444.944275 
	C581.213257,451.184021 582.432312,461.139191 576.433411,468.402039 
	C569.848755,476.374084 560.614807,477.481262 552.768066,470.552216 
	C534.164856,454.124695 515.807617,437.418518 497.361023,420.813873 
	C494.400391,418.148926 492.708160,415.022430 492.575745,410.809143 
	C492.402039,405.281891 487.235229,403.533264 483.610260,400.952698 
	C480.973145,399.075378 479.139679,402.270721 477.302002,403.638611 
	C427.704559,440.557526 357.441345,414.678986 347.160706,351.786499 
	C338.635590,299.633881 380.172546,258.199982 426.166809,258.664246 
	C429.165527,258.694519 432.164185,258.733002 435.624084,258.813721 
M420.096771,402.393494 
	C426.089111,402.918091 432.025726,402.703979 437.989655,401.723145 
	C467.191742,396.920563 490.460876,369.975006 490.659241,340.572113 
	C490.929169,300.566864 455.940430,270.472137 416.513702,277.240479 
	C378.622864,283.745148 357.715332,318.727600 365.202728,353.720612 
	C370.348267,377.768829 392.212097,399.413025 420.096771,402.393494 
z"/>
<path fill="#f5f5f5" opacity="1.000000" stroke="none" 
	d="
M585.461670,349.516113 
	C589.053833,345.899994 589.442810,342.827942 586.786194,338.336395 
	C581.311462,329.080170 584.020203,315.544281 591.871948,308.561981 
	C600.706543,300.705627 612.626404,299.871124 622.288635,306.432495 
	C631.392883,312.614929 635.469238,325.405365 631.606567,335.669037 
	C627.582703,346.361053 616.636230,353.624359 605.745178,351.889465 
	C601.187927,351.163574 598.939819,352.688049 596.850830,356.114685 
	C594.424744,360.094116 591.897217,364.022278 589.204468,367.824493 
	C587.633850,370.042267 587.743408,371.717804 589.160217,374.084167 
	C601.637268,394.923065 588.430176,418.925751 564.306885,419.154358 
	C560.883240,419.186798 559.179749,420.822510 557.688110,423.253052 
	C544.976196,415.923706 532.982300,398.775787 536.210144,385.238251 
	C540.252502,368.284851 554.029724,358.635315 571.174927,362.185760 
	C574.722168,362.920319 576.838135,362.198334 578.692078,359.230743 
	C580.717896,355.987854 583.057800,352.941162 585.461670,349.516113 
M552.647766,373.184418 
	C551.099487,374.751526 549.408752,376.385162 550.669006,378.799622 
	C551.390991,380.182922 553.112854,380.255219 554.230713,379.554321 
	C560.127319,375.857025 566.707397,374.494812 573.983398,374.109955 
	C568.071899,368.125366 560.935547,367.823639 552.647766,373.184418 
M606.547180,309.303619 
	C602.417969,309.211304 599.135620,310.901459 596.652649,314.134186 
	C595.945190,315.055359 595.349731,316.184540 596.204651,317.340210 
	C597.170471,318.645935 598.586670,318.749695 599.735352,317.857056 
	C604.735901,313.971191 610.734680,313.315826 617.378357,312.787811 
	C613.907532,310.321655 610.670227,309.713989 606.547180,309.303619 
z"/>
<path fill="#f5f5f5" opacity="1.000000" stroke="none" 
	d="
M194.537750,626.354126 
	C206.321564,625.246826 206.310806,625.246826 206.308014,636.390015 
	C206.303970,652.543457 206.391190,668.697632 206.246078,684.849731 
	C206.223495,687.362427 207.992523,691.383484 204.040268,692.019104 
	C200.059006,692.659363 195.557480,693.783752 192.214020,689.286499 
	C183.275085,677.262878 174.057922,665.445984 164.932281,653.561584 
	C163.950302,652.282715 163.370651,650.592163 161.570801,650.021301 
	C160.100235,651.039612 160.920853,652.477661 160.925369,653.692932 
	C160.966095,664.683655 160.940842,675.677307 161.215683,686.663086 
	C161.323425,690.969421 159.873291,692.916626 155.452271,692.354309 
	C153.976227,692.166504 152.455505,692.244385 150.960220,692.311829 
	C148.209503,692.435913 146.884689,691.120422 147.032852,688.430054 
	C148.114212,668.795532 147.379990,649.141541 147.703018,629.499268 
	C147.728806,627.930603 147.970718,626.154175 149.821777,626.050903 
	C153.528625,625.844116 157.646820,624.480347 160.592880,627.994812 
	C164.012009,632.073608 167.167236,636.372803 170.468384,640.551575 
	C176.969391,648.780823 183.486008,656.997803 190.017929,665.202576 
	C190.514847,665.826721 191.183685,666.313965 191.838608,666.926636 
	C193.516983,665.218811 192.810822,663.297241 192.820923,661.583862 
	C192.878815,651.759094 192.791687,641.933411 192.848358,632.108643 
	C192.859360,630.201599 192.212097,628.045349 194.537750,626.354126 
z"/>
<path fill="#f5f5f5" opacity="1.000000" stroke="none" 
	d="
M294.394653,680.703125 
	C294.421906,682.001404 294.418304,682.835632 294.473175,683.666077 
	C295.045776,692.330811 294.922272,692.264587 286.442047,692.363953 
	C282.006622,692.415894 280.708069,690.733948 280.794434,686.449097 
	C281.052795,673.627502 280.938965,660.798645 281.000946,647.972778 
	C281.013611,645.352966 280.503204,641.984497 284.430756,642.038879 
	C288.138916,642.090210 292.977295,639.724731 294.983337,645.880371 
	C299.240967,642.512756 303.980499,641.273499 309.373718,641.558960 
	C314.768524,641.844482 318.858124,644.139099 322.488190,648.535522 
	C327.052094,643.652100 332.224335,640.968384 338.946838,641.495056 
	C348.813965,642.267883 354.837463,647.663696 355.186127,657.544434 
	C355.544281,667.693176 355.224335,677.864197 355.351532,688.023682 
	C355.392883,691.326782 353.949921,692.543030 350.834106,692.308350 
	C349.674591,692.221008 348.490204,692.178467 347.339478,692.310303 
	C342.899506,692.819275 341.504272,690.771484 341.645233,686.500977 
	C341.892426,679.013306 341.773163,671.511047 341.695770,664.016052 
	C341.629425,657.594116 338.329468,653.494019 333.438843,653.512634 
	C328.446808,653.531616 324.476074,658.003113 324.429962,664.156494 
	C324.373871,671.645081 324.414734,679.148682 324.842468,686.621216 
	C325.093506,691.007629 323.687164,692.523621 319.250519,692.393372 
	C311.014099,692.151855 310.989777,692.365540 311.100372,684.052551 
	C311.186798,677.559875 311.309387,671.067627 311.444916,664.575745 
	C311.581055,658.054138 308.608887,654.104004 303.481598,654.052917 
	C297.964325,653.997925 294.441681,657.860229 294.357544,664.246399 
	C294.287323,669.575623 294.373840,674.906921 294.394653,680.703125 
z"/>
<path fill="#f5f5f5" opacity="1.000000" stroke="none" 
	d="
M66.999878,625.754272 
	C75.496811,625.741272 83.498291,625.885803 91.488983,625.655823 
	C95.639145,625.536377 96.745628,627.426636 96.391052,631.106628 
	C96.075867,634.377747 97.504066,638.443909 91.646149,638.315735 
	C82.154419,638.107910 72.651604,638.410339 63.159580,638.209167 
	C59.234695,638.125977 57.908268,639.534546 57.916691,643.420959 
	C57.936844,652.717346 57.788429,652.762390 67.099945,652.611206 
	C73.592842,652.505798 80.082535,652.213928 86.575233,652.083374 
	C93.484070,651.944519 90.867653,657.277161 91.419579,660.728699 
	C92.014671,664.450256 89.943802,665.181396 86.696754,665.123657 
	C78.702599,664.981384 70.702774,665.177551 62.707516,665.068970 
	C59.312054,665.022949 58.042633,666.320190 57.977268,669.779236 
	C57.783772,680.020203 57.662926,680.009033 67.741241,679.973938 
	C75.738136,679.946106 83.738365,680.075867 91.730843,679.879883 
	C96.471527,679.763611 97.171776,682.402649 97.128410,686.251709 
	C97.085960,690.019592 96.612862,692.563721 91.722008,692.469116 
	C77.565605,692.195190 63.400963,692.306030 49.239811,692.349426 
	C46.181557,692.358826 44.189934,691.902161 44.238388,688.035950 
	C44.472054,669.392151 44.666828,650.744263 44.488216,632.101440 
	C44.439739,627.041992 45.932293,625.229980 51.012459,625.631042 
	C56.146255,626.036377 61.335171,625.743530 66.999878,625.754272 
z"/>
<path fill="#f5f5f5" opacity="1.000000" stroke="none" 
	d="
M429.802185,624.502686 
	C437.248535,624.680115 443.561401,627.169861 449.488403,630.675354 
	C454.238708,633.484802 454.368622,634.785156 450.984802,639.066040 
	C450.469391,639.718079 449.962799,640.379822 449.494904,641.066284 
	C447.487671,644.011047 445.437897,644.874756 442.147919,642.376526 
	C437.577881,638.906189 432.372131,636.988403 426.382507,637.106445 
	C413.579803,637.358704 404.973236,647.793640 406.148254,662.033142 
	C407.151520,674.190674 418.278595,683.216919 430.008392,681.324646 
	C433.291504,680.794983 436.540985,680.092529 439.529510,678.490723 
	C446.522034,674.742920 448.520996,675.153198 454.462830,681.679932 
	C449.235626,688.947632 441.748535,692.745544 433.246582,694.033447 
	C419.050171,696.183960 406.363647,692.284912 398.074860,680.225708 
	C389.782623,668.161499 388.487152,654.579712 396.129913,641.565430 
	C403.425232,629.142822 415.061829,623.882263 429.802185,624.502686 
z"/>
<path fill="#f5f5f5" opacity="1.000000" stroke="none" 
	d="
M501.964172,643.737061 
	C507.957520,647.708374 509.919739,653.444092 510.207672,659.812378 
	C510.620850,668.951111 510.629181,678.107605 510.965637,687.250732 
	C511.124451,691.566162 509.602081,693.132812 505.066650,692.713440 
	C496.698395,691.939575 496.690826,692.188293 496.678070,683.569641 
	C496.668701,677.243347 496.856873,670.903870 496.516205,664.594116 
	C496.064209,656.223083 490.356842,652.276489 483.540253,655.270081 
	C479.736389,656.940674 478.144104,659.996765 478.148987,664.028687 
	C478.157471,671.020996 478.177795,678.013367 478.159180,685.005615 
	C478.139954,692.236511 478.122253,692.236450 471.156830,692.422913 
	C463.906952,692.617004 463.800079,692.536804 463.801941,685.492737 
	C463.806824,667.012878 463.803894,648.532837 463.887878,630.053284 
	C463.897797,627.868286 462.987183,624.714844 465.963287,624.046997 
	C469.627289,623.224670 473.608459,622.864258 477.201141,624.508911 
	C478.659882,625.176636 478.242523,627.184448 478.252228,628.651367 
	C478.289459,634.283813 478.267273,639.916626 478.267273,646.669922 
	C485.989319,640.776489 493.578430,639.536926 501.964172,643.737061 
z"/>
<path fill="#f5f5f5" opacity="1.000000" stroke="none" 
	d="
M666.973938,657.974365 
	C662.843384,660.971680 663.396301,663.674988 665.934570,667.363464 
	C671.286987,675.141479 676.069458,683.311768 681.117126,691.371033 
	C673.573242,695.015442 667.046631,693.448608 663.014587,687.356140 
	C660.626892,683.748413 658.176392,680.164856 656.067444,676.395203 
	C654.005554,672.709351 652.203491,673.212708 649.660583,675.921021 
	C646.931580,678.827698 647.157715,682.259766 647.110535,685.749939 
	C647.022827,692.241089 640.483887,695.824463 634.839478,692.552002 
	C632.979370,691.473450 633.413940,689.756409 633.317322,688.142151 
	C632.341309,671.829102 634.243225,655.538330 633.691406,639.226990 
	C633.567627,635.568726 633.761963,631.899658 633.638733,628.241333 
	C633.539429,625.292175 634.833130,623.905701 637.734070,623.911499 
	C639.232239,623.914490 640.732971,623.962036 642.227966,623.891785 
	C645.815552,623.723267 647.324707,625.355042 647.267761,628.973328 
	C647.136841,637.294983 647.169067,645.620056 647.227112,653.943176 
	C647.240601,655.871643 646.762817,657.923157 648.396545,660.376160 
	C652.570557,655.952515 657.008667,651.994690 660.529480,647.342712 
	C665.797607,640.382019 672.537170,642.017944 680.104858,643.674988 
	C675.808228,648.355408 671.511597,653.035828 666.973938,657.974365 
z"/>
<path fill="#f5f5f5" opacity="1.000000" stroke="none" 
	d="
M565.775269,653.439392 
	C568.514038,658.206909 569.367493,663.080383 569.635864,668.110718 
	C569.827026,671.693970 568.741028,673.610107 564.576416,673.461914 
	C556.603210,673.178162 548.612915,673.341492 540.630066,673.382446 
	C538.840759,673.391663 536.980896,672.977966 535.268555,673.879700 
	C536.478333,681.147217 544.835632,685.003662 552.834778,681.944580 
	C554.531067,681.295837 556.181335,680.427551 557.692261,679.419800 
	C559.307922,678.342163 560.477783,678.320496 562.107117,679.600830 
	C568.082336,684.296326 567.964050,686.550293 561.273865,690.219055 
	C551.211975,695.736816 537.723083,694.999634 529.711914,688.494385 
	C521.999512,682.231445 518.696289,670.277039 521.704529,659.837891 
	C524.480774,650.203613 530.489197,643.600037 540.439331,641.939087 
	C550.955444,640.183655 559.891541,643.338257 565.775269,653.439392 
M540.675720,653.800293 
	C537.155762,655.448181 534.670654,657.794495 534.936462,662.921997 
	C541.110229,662.921997 547.175415,663.055054 553.230286,662.862244 
	C555.991089,662.774414 555.691895,660.867859 554.883423,658.901917 
	C552.910339,654.103943 549.169617,652.574768 540.675720,653.800293 
z"/>
<path fill="#f5f5f5" opacity="1.000000" stroke="none" 
	d="
M235.231628,673.364258 
	C236.812637,679.097717 239.416962,681.042236 244.541565,680.723816 
	C249.274475,680.429626 253.003403,676.857422 253.496460,671.587646 
	C253.851791,667.790039 253.650040,663.938904 253.668076,660.111511 
	C253.686905,656.116943 253.649002,652.122070 253.676056,648.127625 
	C253.716156,642.207275 253.936661,642.023804 260.473816,642.046936 
	C266.948669,642.069885 267.318207,642.358459 267.335754,648.163269 
	C267.372498,660.313538 267.348236,672.463989 267.365356,684.614319 
	C267.376404,692.454468 267.389801,692.422363 259.360901,692.321472 
	C256.453186,692.284973 253.501831,692.511963 253.409760,687.932373 
	C246.705093,692.997070 239.985809,695.103027 232.403976,692.093262 
	C224.272552,688.865356 221.564941,681.857605 221.229416,674.121216 
	C220.819458,664.667725 221.498215,655.167725 221.674774,645.687317 
	C221.710541,643.766602 222.398804,642.385925 224.456833,642.271362 
	C226.942184,642.133057 229.455170,641.989136 231.925308,642.203430 
	C235.172546,642.485107 235.059662,645.096313 235.073303,647.468506 
	C235.122177,655.956177 235.158066,664.443787 235.231628,673.364258 
z"/>
<path fill="#f5f5f5" opacity="1.000000" stroke="none" 
	d="
M591.996521,643.715881 
	C602.182373,639.347778 611.541443,640.346924 620.253052,646.454956 
	C622.179871,647.805969 625.444336,649.026611 622.975708,652.627991 
	C619.181885,658.162537 616.649902,659.249023 612.860107,656.768616 
	C606.637695,652.696167 600.881836,652.547180 596.246094,656.338806 
	C591.424744,660.282227 589.892029,666.632202 592.190979,673.139160 
	C595.261169,681.828613 604.261902,684.547180 612.646240,679.317505 
	C616.524780,676.898254 622.658936,679.254211 623.793091,683.603638 
	C624.335693,685.684814 622.712646,686.562134 621.491089,687.619202 
	C610.470886,697.155518 591.899902,696.148560 583.706177,685.585022 
	C573.717773,672.707764 575.961548,654.902710 588.728821,645.803589 
	C589.676392,645.128296 590.678711,644.529968 591.996521,643.715881 
z"/>
<path fill="#f5f5f5" opacity="1.000000" stroke="none" 
	d="
M314.828644,285.295532 
	C323.878204,283.970520 330.233704,287.394409 332.753876,294.611145 
	C335.206329,301.634094 332.379364,308.992126 325.887207,312.483551 
	C318.773804,316.309113 310.168274,313.725861 306.212708,306.577515 
	C302.460327,299.796356 304.753723,290.823669 311.286438,286.887329 
	C312.272369,286.293274 313.384094,285.907959 314.828644,285.295532 
z"/>
<path fill="#f5f5f5" opacity="1.000000" stroke="none" 
	d="
M319.375732,351.814636 
	C315.155823,358.791443 309.932648,360.592102 303.757355,357.524811 
	C298.150970,354.740112 295.842377,348.100555 298.407318,342.138062 
	C300.600769,337.039185 307.210266,334.209503 312.700012,336.019043 
	C319.071228,338.119141 321.520233,343.653076 319.375732,351.814636 
z"/>
<path fill="#f5f5f5" opacity="1.000000" stroke="none" 
	d="
M123.951797,658.719238 
	C125.438354,658.720581 126.434883,658.719421 127.431404,658.720825 
	C134.200195,658.730225 136.650406,662.146790 134.846878,668.793152 
	C134.276062,670.896729 132.902802,671.252441 131.132828,671.254272 
	C123.991226,671.261780 116.849480,671.234497 109.708092,671.274963 
	C105.559525,671.298523 105.873863,668.345947 106.064415,665.704712 
	C106.271408,662.835327 104.874443,658.824402 110.009087,658.738647 
	C114.492172,658.663696 118.977448,658.719788 123.951797,658.719238 
z"/>
<path fill="#f5f5f5" opacity="1.000000" stroke="none" 
	d="
M341.097168,261.829071 
	C345.598633,261.791107 347.985443,264.065002 348.979279,267.780426 
	C349.775848,270.758301 348.808594,273.379364 346.270477,275.205994 
	C343.782654,276.996460 341.079590,277.243530 338.338989,275.739258 
	C335.568054,274.218384 334.433502,271.765930 334.700409,268.702881 
	C335.022278,265.008820 336.874023,262.547577 341.097168,261.829071 
z"/>
<path fill="#f5f5f5" opacity="1.000000" stroke="none" 
	d="
M336.785278,332.146423 
	C337.525116,328.758575 337.841614,325.572876 340.881348,323.684204 
	C342.226410,326.485382 341.689026,336.337372 339.984100,340.307465 
	C337.127228,338.376862 336.888184,335.496307 336.785278,332.146423 
z"/>
<path fill="#f5f5f5" opacity="1.000000" stroke="none" 
	d="
M387.038208,329.884247 
	C383.952240,325.102234 381.060303,320.626373 378.172516,316.147827 
	C377.263885,314.738678 376.453552,313.389587 377.049377,311.517365 
	C378.428131,307.185089 386.027710,298.445618 391.322235,295.767700 
	C412.214661,326.814056 432.251556,358.510376 452.589935,390.554199 
	C445.683411,394.692291 438.810272,396.207245 431.627411,396.597382 
	C429.124695,396.733307 428.464325,394.466461 427.419495,392.839508 
	C414.012512,371.963715 400.625702,351.074921 387.038208,329.884247 
z"/>
<path fill="#f5f5f5" opacity="1.000000" stroke="none" 
	d="
M433.044434,287.757629 
	C451.177338,289.763031 464.129486,298.985107 473.252045,313.972961 
	C474.371246,315.811676 475.282043,317.800049 476.092438,319.798950 
	C477.491608,323.250122 476.650909,326.238922 473.209930,327.740540 
	C469.664551,329.287659 467.678192,327.129852 466.327454,323.983551 
	C460.694672,310.862885 450.950623,302.498474 437.084900,299.006561 
	C435.643860,298.643677 434.150024,298.436188 432.667542,298.303467 
	C429.324768,298.004181 426.741089,296.827209 426.745483,292.971039 
	C426.749817,289.162445 429.092163,287.732849 433.044434,287.757629 
z"/>
<path fill="#f5f5f5" opacity="1.000000" stroke="none" 
	d="
M384.581726,378.401611 
	C380.268219,373.752716 376.640076,369.097412 374.893982,363.258575 
	C382.895935,359.594818 392.319916,362.620636 396.461884,369.641479 
	C400.184082,375.950775 404.161957,382.108765 407.979492,388.362549 
	C408.913727,389.892944 410.235260,391.277008 410.275452,394.094513 
	C399.949646,391.527802 391.882812,385.975800 384.581726,378.401611 
z"/>
</svg>